<svg id="Layer_1" data-name="Layer 1" xmlns="http://www.w3.org/2000/svg" viewBox="0 0 52.09 46.81"><defs><style>.cls-1{fill:#4284f3;}.cls-2{opacity:0.07;isolation:isolate;}.cls-3{fill:#fff;}</style></defs><title>Storage-Databases</title><path class="cls-1" d="M51.46,21,40.76,2.39a4.71,4.71,0,0,0-4-2.39H15.34a4.7,4.7,0,0,0-4,2.39L.62,21a4.65,4.65,0,0,0,0,4.65l10.7,18.72a4.82,4.82,0,0,0,4,2.48H36.74a4.79,4.79,0,0,0,4-2.47l10.7-18.61A4.8,4.8,0,0,0,51.46,21Z"/><path class="cls-2" d="M34.79,17.92,20.06,19.28l-2.85,2.85,2.45,2.44-2.42,4.24,18,18h1.52a4.76,4.76,0,0,0,4-2.46l7.46-13Z"/><g id="art"><path class="cls-3" d="M34.46,17.81H17.6a.5.5,0,0,0-.51.48h0v3.49a.49.49,0,0,0,.49.49H34.46a.51.51,0,0,0,.5-.49V18.3a.51.51,0,0,0-.5-.49m-2.6,3.26a1,1,0,1,1,1-1,1,1,0,0,1-1,1h0"/><path class="cls-3" d="M34.46,24.51H17.6a.5.5,0,0,0-.51.48v3.52a.49.49,0,0,0,.49.49H34.46a.51.51,0,0,0,.5-.49V25a.51.51,0,0,0-.5-.49m-2.6,3.26a1,1,0,1,1,1-1,1,1,0,0,1-1,1h0"/></g></svg>