<?xml version="1.0" encoding="UTF-8" standalone="no"?>
<svg
   xmlns:dc="http://purl.org/dc/elements/1.1/"
   xmlns:cc="http://creativecommons.org/ns#"
   xmlns:rdf="http://www.w3.org/1999/02/22-rdf-syntax-ns#"
   xmlns:svg="http://www.w3.org/2000/svg"
   xmlns="http://www.w3.org/2000/svg"
   viewBox="0 0 479.94666 122.68"
   height="122.68"
   width="479.94666"
   xml:space="preserve"
   id="svg2"
   version="1.1"><metadata
     id="metadata8"><rdf:RDF><cc:Work
         rdf:about=""><dc:format>image/svg+xml</dc:format><dc:type
           rdf:resource="http://purl.org/dc/dcmitype/StillImage" /></cc:Work></rdf:RDF></metadata><defs
     id="defs6" /><g
     transform="matrix(1.3333333,0,0,-1.3333333,0,122.68)"
     id="g10"><g
       transform="scale(0.1)"
       id="g12"><path
         id="path14"
         style="fill:#ffffff;fill-opacity:1;fill-rule:nonzero;stroke:none"
         d="m 2599.41,50.0781 -77.05,214.5199 c -0.92,2.882 -2.35,6.738 -2.35,10.3 0,9.137 7.78,17.969 19.13,17.969 9.78,0 16.13,-6.308 19.14,-15.59 l 63.67,-184.7223 64.36,185.3123 c 2.82,8.692 8.65,15 18.43,15 h 2 c 10.44,0 16.83,-6.308 19.7,-15 l 63.67,-185.3123 64.84,185.6993 c 2.48,7.937 7.79,14.613 18.18,14.613 10.79,0 18.48,-8.281 18.48,-17.672 0,-3.23 -1.48,-7.336 -2.31,-10.238 L 2811.87,50.0781 c -4.06,-11.0468 -11.81,-16.9922 -20.71,-16.9922 h -1.36 c -9.91,0 -17.25,5.9454 -20.75,16.9922 L 2705.79,232.375 2642.12,50.0781 c -3.47,-11.0468 -10.82,-16.9922 -20.65,-16.9922 h -1.05 c -9.3,0 -17.05,5.9454 -21.01,16.9922" /><path
         id="path16"
         style="fill:#ffffff;fill-opacity:1;fill-rule:nonzero;stroke:none"
         d="m 3160.54,273.855 c 0,10.278 8.36,19.239 18.66,19.239 10.97,0 19.17,-8.328 19.17,-19.239 v -43.546 c 18.67,42.363 60.06,62.148 87.42,62.148 11.4,0 18.74,-8.324 18.74,-19.031 0,-10.211 -6.91,-17.606 -16.74,-19.188 -49,-5.8 -89.42,-42.761 -89.42,-115.945 V 52.1641 c 0,-10.4102 -7.9,-19.0782 -18.56,-19.0782 -10.91,0 -19.27,8.3516 -19.27,19.0782 V 273.855" /><path
         id="path18"
         style="fill:#ffffff;fill-opacity:1;fill-rule:nonzero;stroke:none"
         d="m 3499.45,178.418 c -3.78,45.762 -29.75,85.566 -79.24,85.566 -43.44,0 -76.11,-36.398 -80.85,-85.566 z M 3426,33.0859 c -68.41,0 -124.25,52.961 -124.25,130.7691 v 0.95 c 0,72.398 50.54,130.894 119.41,130.894 73.61,0 115.46,-60.801 115.46,-127.363 0,-10.16 -8.21,-17.633 -17.29,-17.633 h -179.97 c 5.27,-54.3983 43.2,-85.0311 87.59,-85.0311 30.84,0 53.37,12.1328 71.67,29.1914 2.92,2.4375 6.23,4.3633 10.61,4.3633 9.08,0 16.45,-7.418 16.45,-16.1836 0,-4.2383 -2.01,-8.7149 -5.79,-11.9141 -23.71,-23.0703 -51.58,-38.043 -93.89,-38.043" /><path
         id="path20"
         style="fill:#ffffff;fill-opacity:1;fill-rule:nonzero;stroke:none"
         d="m 3079.06,131.395 v 24.601 c -18.67,5.359 -43.67,10.754 -74.5,10.754 -47.46,0 -73.89,-20.602 -73.89,-52.348 v -1.105 c 0,-31.6837 29.49,-50.4064 63.71,-50.4064 46.4,0 84.68,28.4336 84.68,68.5044 m -186.67,-19.524 v 0.996 c 0,53.41 44.05,81.754 108.1,81.754 32.51,0 55.6,-4.473 78.08,-10.762 v 8.942 c 0,45.359 -27.95,69.008 -75.5,69.008 -25.49,0 -40.13,-3.278 -58.7,-11.598 -2.57,-0.914 -5.11,-1.449 -6.91,-1.449 -8.8,0 -16.8,7.265 -16.8,16.058 0,7.942 3.39,12.66 10.39,15.797 24.84,10.887 43.67,14.363 75.9,14.363 35.75,0 63.31,-9.152 81.92,-27.859 17.09,-17.113 25.88,-41.762 25.88,-74 V 53.3867 c 0,-10.6328 -7.69,-18.6289 -18.21,-18.6289 -10.75,0 -17.97,7.9961 -17.97,17.6641 V 76.7422 C 3061,53.5703 3031.5,33.0859 2987.03,33.0859 c -47.01,0 -94.64,26.8125 -94.64,78.7851" /><path
         id="path22"
         style="fill:#ffffff;fill-opacity:1;fill-rule:nonzero;stroke:none"
         d="m 1923.51,275.324 c -8.07,17.953 -28.16,26.047 -46.99,17.629 -18.88,-8.367 -25.72,-29.351 -17.32,-47.199 l 79.07,-171.6524 c 12.39,-26.9024 25.43,-41.0157 50.05,-41.0157 26.14,0 37.75,15.3321 50.19,41.0157 0,0 68.88,150.0784 69.48,151.6404 0.71,1.504 3.01,6.406 9.97,6.289 5.83,0 11.04,-4.715 11.04,-11.093 V 74.2188 c 0,-22.4844 12.39,-41.1329 36.53,-41.1329 24.14,0 37.23,18.6485 37.23,41.1329 V 194.41 c 0,23.129 16.48,38.051 39.14,38.051 22.65,0 37.7,-15.547 37.7,-38.051 V 74.2188 c 0,-22.4844 12.57,-41.1329 36.63,-41.1329 24.22,0 37.14,18.6485 37.14,41.1329 V 194.41 c 0,23.129 16.64,38.051 39.39,38.051 22.48,0 37.53,-15.547 37.53,-38.051 V 74.2188 c 0,-22.4844 12.52,-41.1329 36.7,-41.1329 24.14,0 37.23,18.6485 37.23,41.1329 V 210.91 c 0,50.164 -40.23,85.434 -88.98,85.434 -48.63,0 -78.88,-33.699 -78.88,-33.699 -16.18,21.027 -38.62,33.601 -76.28,33.601 -39.66,0 -74.54,-33.601 -74.54,-33.601 -16,21.027 -43.8,33.601 -66.45,33.601 -35.13,0 -63.23,-15.387 -80.24,-54.383 l -50.53,-119.082 -64.81,152.543" /><path
         id="path24"
         style="fill:#ffffff;fill-opacity:1;fill-rule:nonzero;stroke:none"
         d="m 3592.26,263.371 v 0.113 c 0,13.868 -10.67,25.254 -24.88,25.254 -14.15,0 -24.97,-11.57 -24.97,-25.367 v -0.117 c 0,-13.742 10.75,-25.094 24.97,-25.094 14.14,0 24.88,11.578 24.88,25.211 m -55.64,-0.117 v 0.117 c 0,16.875 13.59,31.149 30.76,31.149 17.39,0 30.74,-14.133 30.74,-30.918 v -0.231 c 0,-16.723 -13.66,-30.891 -30.74,-30.891 -17.35,0 -30.76,13.879 -30.76,30.774" /><path
         id="path26"
         style="fill:#ffffff;fill-opacity:1;fill-rule:nonzero;stroke:none"
         d="m 3568.95,264.48 c 3.07,0 4.95,1.661 4.95,4.184 v 0.145 c 0,2.793 -1.95,4.336 -5.18,4.336 h -6.65 v -8.665 z m -13.31,11.25 c 0,1.75 1.33,3.313 3.27,3.313 h 10.25 c 3.92,0 6.87,-1.176 8.7,-3.09 1.82,-1.668 2.7,-3.988 2.7,-6.894 0,-4.762 -2.36,-7.598 -6.05,-9.024 l 4.65,-5.582 c 0.66,-0.996 1.06,-1.586 1.06,-2.539 0,-1.769 -1.62,-2.973 -3.18,-2.973 -1.49,0 -2.39,0.68 -3.14,1.696 l -6.34,7.894 h -5.49 v -6.371 c 0,-1.652 -1.21,-3.219 -3.16,-3.219 -1.94,0 -3.27,1.567 -3.27,3.219 v 23.57" /><path
         id="path28"
         style="fill:#ffffff;fill-opacity:1;fill-rule:nonzero;stroke:none"
         d="m 1588.27,116.023 v 0.575 c 0,33.746 -23.18,55.238 -50.28,55.238 -26.56,0 -51.66,-22.434 -51.66,-55 v -0.481 c 0,-33.1948 25.1,-55.3198 51.66,-55.3198 27.63,0 50.28,20.4687 50.28,54.9878 M 1487.16,72.4102 V 44.9727 h -21.3 V 246.766 h 21.3 v -87.571 c 11.62,17.035 28.44,31.703 54.71,31.703 34.23,0 68.27,-27.043 68.27,-74.062 v -0.481 c 0,-46.7144 -33.75,-74.3745 -68.27,-74.3745 -26.53,0 -43.7,14.3554 -54.71,30.4297" /><path
         id="path30"
         style="fill:#ffffff;fill-opacity:1;fill-rule:nonzero;stroke:none"
         d="m 1749.35,187.871 h 22.66 L 1712.03,40.3398 C 1699.91,10.7305 1686.08,0 1664.51,0 c -11.88,0 -20.71,2.42188 -30.4,7.14453 l 7.22,16.89067 c 6.91,-3.6368 13.22,-5.25 22.39,-5.25 12.7,0 20.66,6.5859 29.23,26.7773 l -64.88,142.3085 h 23.44 l 52.01,-119.0546 45.83,119.0546" /><path
         id="path32"
         style="fill:#ffffff;fill-opacity:1;fill-rule:nonzero;stroke:none"
         d="m 665.523,822.332 h 74.817 l 65.75,-214.941 71.187,215.847 h 59.86 l 71.193,-215.847 65.75,214.941 h 73.01 L 1038.72,502.645 H 977.949 L 906.301,710.328 834.66,502.645 H 773.895 L 665.523,822.332" /><path
         id="path34"
         style="fill:#ffffff;fill-opacity:1;fill-rule:nonzero;stroke:none"
         d="m 1320.75,637.77 -42.16,102.945 -42.18,-102.945 z m -73.45,186.832 h 64.39 l 136.03,-319.688 h -73 l -29.02,71.195 h -134.23 l -29.02,-71.195 h -71.19 l 136.04,319.688" /><path
         id="path36"
         style="fill:#ffffff;fill-opacity:1;fill-rule:nonzero;stroke:none"
         d="m 1405.09,822.332 h 77.09 l 82.98,-223.551 82.98,223.551 h 75.28 L 1595.09,502.645 h -61.68 l -128.32,319.687" /><path
         id="path38"
         style="fill:#ffffff;fill-opacity:1;fill-rule:nonzero;stroke:none"
         d="m 1758.3,822.332 h 239.41 v -62.125 h -170.04 v -64.394 h 149.64 v -62.114 h -149.64 v -66.664 h 172.31 V 504.914 H 1758.3 v 317.418" /><path
         id="path40"
         style="fill:#ffffff;fill-opacity:1;fill-rule:nonzero;stroke:none"
         d="m 2055.53,822.332 h 241.68 v -63.488 h -171.86 v -67.555 h 151.46 V 627.805 H 2125.35 V 504.914 h -69.82 v 317.418" /><path
         id="path42"
         style="fill:#ffffff;fill-opacity:1;fill-rule:nonzero;stroke:none"
         d="m 2480.77,668.156 c 34.01,0 53.5,18.145 53.5,44.899 v 0.906 c 0,29.926 -20.85,45.336 -54.86,45.336 h -69.38 V 668.156 Z M 2340.2,822.332 h 145.1 c 40.36,0 71.65,-11.34 92.51,-32.195 17.68,-17.68 27.21,-42.621 27.21,-72.547 v -0.91 c 0,-51.25 -27.66,-83.434 -68.02,-98.403 l 77.53,-113.363 h -81.61 l -68.03,101.566 h -54.86 V 504.914 h -69.83 v 317.418" /><path
         id="path44"
         style="fill:#ffffff;fill-opacity:1;fill-rule:nonzero;stroke:none"
         d="m 2903.06,662.723 v 0.906 c 0,54.414 -39.9,99.758 -96.13,99.758 -56.23,0 -95.22,-44.442 -95.22,-98.864 v -0.894 c 0,-54.426 39.9,-99.766 96.12,-99.766 56.23,0 95.23,44.434 95.23,98.86 z m -264.36,0 v 0.906 c 0,90.23 71.19,164.144 169.13,164.144 97.95,0 168.25,-73.011 168.25,-163.25 v -0.894 c 0,-90.238 -71.2,-164.16 -169.15,-164.16 -97.94,0 -168.23,73.011 -168.23,163.254" /><path
         id="path46"
         style="fill:#ffffff;fill-opacity:1;fill-rule:nonzero;stroke:none"
         d="m 3017.79,822.332 h 64.38 l 148.74,-195.437 v 195.437 h 68.93 V 504.914 h -59.41 L 3086.71,706.699 V 504.914 h -68.92 v 317.418" /><path
         id="path48"
         style="fill:#ffffff;fill-opacity:1;fill-rule:nonzero;stroke:none"
         d="m 3433.19,757.941 h -96.59 v 64.391 h 263 v -64.391 h -96.57 V 504.914 h -69.84 v 253.027" /><path
         id="path50"
         style="fill:#ffffff;fill-opacity:1;fill-rule:nonzero;stroke:none"
         d="M 121.688,416.012 12.4102,388.496 C 6.10938,386.91 0,391.672 0,398.172 v 108.652 c 0,4.571 3.10547,8.559 7.53906,9.672 l 109.27694,27.52 c 6.301,1.586 12.411,-3.18 12.411,-9.672 v -108.66 c 0,-4.571 -3.106,-8.555 -7.539,-9.672" /><path
         id="path52"
         style="fill:#ffffff;fill-opacity:1;fill-rule:nonzero;stroke:none"
         d="M 121.688,580.348 12.4102,552.828 C 6.10938,551.242 0,556.008 0,562.5 v 237.887 c 0,4.57 3.10547,8.554 7.53906,9.672 L 116.816,837.574 c 6.301,1.586 12.411,-3.172 12.411,-9.672 V 590.02 c 0,-4.571 -3.106,-8.559 -7.539,-9.672" /><path
         id="path54"
         style="fill:#ffffff;fill-opacity:1;fill-rule:nonzero;stroke:none"
         d="m 286.023,421.711 -109.277,-27.52 c -6.301,-1.586 -12.414,3.18 -12.414,9.672 v 143.696 c 0,4.57 3.106,8.554 7.539,9.675 l 109.277,27.52 c 6.301,1.586 12.415,-3.18 12.415,-9.676 V 431.383 c 0,-4.57 -3.106,-8.559 -7.54,-9.672" /><path
         id="path56"
         style="fill:#ffffff;fill-opacity:1;fill-rule:nonzero;stroke:none"
         d="m 286.023,621.145 -109.277,-27.52 c -6.301,-1.59 -12.414,3.18 -12.414,9.672 v 202.781 c 0,4.574 3.106,8.559 7.539,9.676 l 109.277,27.519 c 6.301,1.586 12.415,-3.179 12.415,-9.671 V 630.816 c 0,-4.57 -3.106,-8.558 -7.54,-9.671" /><path
         id="path58"
         style="fill:#ffffff;fill-opacity:1;fill-rule:nonzero;stroke:none"
         d="M 450.352,498.18 341.074,470.664 c -6.297,-1.586 -12.406,3.176 -12.406,9.676 v 108.652 c 0,4.571 3.105,8.559 7.539,9.672 l 109.277,27.52 c 6.301,1.586 12.414,-3.18 12.414,-9.672 v -108.66 c 0,-4.571 -3.113,-8.555 -7.546,-9.672" /><path
         id="path60"
         style="fill:#ffffff;fill-opacity:1;fill-rule:nonzero;stroke:none"
         d="m 450.352,662.516 -109.278,-27.52 c -6.297,-1.586 -12.406,3.18 -12.406,9.672 v 237.883 c 0,4.574 3.105,8.558 7.539,9.676 l 109.277,27.515 c 6.301,1.586 12.414,-3.172 12.414,-9.672 V 672.188 c 0,-4.571 -3.113,-8.559 -7.546,-9.672" /></g></g></svg>